<?xml version="1.0" encoding="UTF-8" standalone="no"?>
<!-- Created with Inkscape (http://www.inkscape.org/) -->

<svg
   xmlns:dc="http://purl.org/dc/elements/1.1/"
   xmlns:cc="http://creativecommons.org/ns#"
   xmlns:rdf="http://www.w3.org/1999/02/22-rdf-syntax-ns#"
   xmlns:svg="http://www.w3.org/2000/svg"
   xmlns="http://www.w3.org/2000/svg"
   xmlns:xlink="http://www.w3.org/1999/xlink"
   xmlns:sodipodi="http://sodipodi.sourceforge.net/DTD/sodipodi-0.dtd"
   xmlns:inkscape="http://www.inkscape.org/namespaces/inkscape"
   id="svg3330"
   height="24"
   width="24"
   version="1.1"
   inkscape:version="0.48.1 r9760"
   sodipodi:docname="audio-input-microphone-muted-panel.svg">
  <defs
     id="defs3159">
    <linearGradient
       gradientTransform="matrix(0,-3.0000004,2.9652505,0,27.335916,19.000009)"
       gradientUnits="userSpaceOnUse"
       xlink:href="#linearGradient3183"
       id="linearGradient2927"
       y2="11.015625"
       x2="19"
       y1="11.015625"
       x1="11" />
    <linearGradient
       id="linearGradient3183">
      <stop
         offset="0"
         style="stop-color:#c80000;stop-opacity:1"
         id="stop3185" />
      <stop
         offset="1"
         style="stop-color:#f3604d;stop-opacity:1"
         id="stop3187" />
    </linearGradient>
    <linearGradient
       gradientTransform="matrix(4.4444444,0,0,4.4444444,3.555556,147.04167)"
       gradientUnits="userSpaceOnUse"
       xlink:href="#linearGradient4081"
       id="linearGradient2955"
       y2="-43.829292"
       x2="4.882854"
       y1="-33.967701"
       x1="4.882854" />
    <linearGradient
       id="linearGradient4081">
      <stop
         offset="0"
         style="stop-color:#aaaaaa;stop-opacity:1"
         id="stop4083" />
      <stop
         offset="1"
         style="stop-color:#f0f0f0;stop-opacity:1"
         id="stop4085" />
    </linearGradient>
    <linearGradient
       inkscape:collect="always"
       xlink:href="#linearGradient3183"
       id="linearGradient3227"
       gradientUnits="userSpaceOnUse"
       gradientTransform="matrix(0,-0.61724741,0.61009765,0,11.575103,20.765037)"
       x1="11"
       y1="11.015625"
       x2="19"
       y2="11.015625" />
    <linearGradient
       inkscape:collect="always"
       xlink:href="#linearGradient4081"
       id="linearGradient3231"
       gradientUnits="userSpaceOnUse"
       gradientTransform="matrix(0.91444048,0,0,0.91444048,-28.980336,50.964917)"
       x1="4.882854"
       y1="-33.967701"
       x2="4.882854"
       y2="-43.829292" />
  </defs>
  <sodipodi:namedview
     pagecolor="#ffffff"
     bordercolor="#666666"
     borderopacity="1"
     objecttolerance="10"
     gridtolerance="10"
     guidetolerance="10"
     inkscape:pageopacity="0"
     inkscape:pageshadow="2"
     inkscape:window-width="1313"
     inkscape:window-height="943"
     id="namedview3157"
     showgrid="false"
     inkscape:zoom="10.375"
     inkscape:cx="12"
     inkscape:cy="12"
     inkscape:window-x="474"
     inkscape:window-y="112"
     inkscape:window-maximized="0"
     inkscape:current-layer="svg3330" />
  <metadata
     id="metadata3335">
    <rdf:RDF>
      <cc:Work
         rdf:about="">
        <dc:format>image/svg+xml</dc:format>
        <dc:type
           rdf:resource="http://purl.org/dc/dcmitype/StillImage" />
        <dc:title></dc:title>
      </cc:Work>
    </rdf:RDF>
  </metadata>
  <path
     inkscape:connector-curvature="0"
     d="M 8,3 C 6.338,3 5,4.338 5,6 v 8 c 0,1.662 1.338,3 3,3 1.662,0 3,-1.338 3,-3 V 6 C 11,4.338 9.662,3 8,3 z m -6,7 v 1 h 1 v 3 c 0,2.4238 1.7175,4.4415 4,4.9062 v 2.094 H 6 v 1 h 4 v -1 H 9 v -2.0938 c 2.283,-0.464 4,-2.4822 4,-4.906 v -3 h 1 v -1 h -1 -1 v 4 c 0,2.216 -1.784,4 -4,4 -2.216,0 -4,-1.784 -4,-4 v -4 H 3 2 z"
     style="opacity:0.3;color:#ffffff;fill:#ffffff"
     id="path3122-6" />
  <path
     inkscape:connector-curvature="0"
     d="M 8,2 C 6.338,2 5,3.338 5,5 v 8 c 0,1.662 1.338,3 3,3 1.662,0 3,-1.338 3,-3 V 5 C 11,3.338 9.662,2 8,2 z M 2,9 v 1 h 1 v 3 c 0,2.4238 1.7175,4.4415 4,4.9062 V 20 H 6 v 1 h 4 V 20 H 9 V 17.9062 C 11.283,17.4415 13,15.4238 13,13 v -3 h 1 V 9 h -1 -1 v 4 c 0,2.216 -1.784,4 -4,4 C 5.784,17 4,15.216 4,13 V 9 H 3 2 z"
     style="color:#ffffff;fill:#3c3c3c"
     id="path3122" />
  <path
     inkscape:connector-curvature="0"
     d="m 17.029067,8.8380163 c 1.48e-4,-1.7e-5 -0.01944,0.0065 -0.01929,0.0064 1.47e-4,-2.5e-5 -0.01944,3.2e-5 -0.01929,0 1.46e-4,-3.2e-5 -0.01943,0.0065 -0.01929,0.0064 2.05e-4,-5.4e-5 -0.02593,0.0065 -0.02572,0.0064 2.06e-4,-6.9e-5 -0.02592,0.01294 -0.02572,0.01286 2.02e-4,-8.4e-5 -0.03234,0.01296 -0.03215,0.01286 1.95e-4,-9.8e-5 -0.0259,0.01297 -0.02572,0.01286 1.87e-4,-1.12e-4 -0.01947,0.01942 -0.01929,0.01929 1.78e-4,-1.25e-4 -0.02589,0.013 -0.02572,0.01286 1.69e-4,-1.38e-4 -0.01945,0.01944 -0.01929,0.01929 1.19e-4,-1.13e-4 -0.01353,0.01342 -0.01929,0.01929 -0.0019,0.002 -0.0065,0.0065 -0.0064,0.0064 L 15.537403,10.22028 c 1.96e-4,-2.06e-4 -0.0259,0.03237 -0.02572,0.03215 1.75e-4,-2.27e-4 -0.01944,0.02596 -0.01929,0.02572 1.53e-4,-2.47e-4 -0.01942,0.0324 -0.01929,0.03215 1.3e-4,-2.46e-4 -0.01939,0.03884 -0.01929,0.03858 1.06e-4,-2.67e-4 -0.01294,0.03242 -0.01286,0.03215 8e-5,-2.68e-4 -0.0065,0.03886 -0.0064,0.03858 5.4e-5,-2.88e-4 -0.0065,0.03886 -0.0064,0.03858 2.7e-5,-2.88e-4 0,0.03886 0,0.03858 0,-2.88e-4 2.7e-5,0.03886 0,0.03858 -2.7e-5,-2.89e-4 0.0065,0.03886 0.0064,0.03858 -5.4e-5,-2.88e-4 0.0065,0.03885 0.0064,0.03858 -8e-5,-2.67e-4 0.01296,0.03241 0.01286,0.03215 -1.06e-4,-2.68e-4 0.01942,0.03883 0.01929,0.03858 -1.3e-4,-2.47e-4 0.01944,0.03239 0.01929,0.03215 -1.54e-4,-2.47e-4 0.01946,0.02594 0.01929,0.02572 -1.76e-4,-2.27e-4 0.02592,0.03235 0.02572,0.03215 l 0.925871,0.93873 -0.925871,0.938731 c 1.96e-4,-2.06e-4 -0.0259,0.03237 -0.02572,0.03215 1.75e-4,-2.26e-4 -0.01944,0.02596 -0.01929,0.02572 1.53e-4,-2.47e-4 -0.01942,0.0324 -0.01929,0.03215 1.3e-4,-2.47e-4 -0.01939,0.03884 -0.01929,0.03858 1.06e-4,-2.68e-4 -0.01294,0.03242 -0.01286,0.03215 8e-5,-2.67e-4 -0.0065,0.03886 -0.0064,0.03858 5.4e-5,-2.88e-4 -0.0065,0.03886 -0.0064,0.03858 2.7e-5,-2.88e-4 0,0.03886 0,0.03858 0,-2.88e-4 2.7e-5,0.03886 0,0.03858 -2.7e-5,-2.88e-4 0.0065,0.03886 0.0064,0.03858 -5.4e-5,-2.88e-4 0.0065,0.03885 0.0064,0.03858 -8e-5,-2.68e-4 0.01296,0.03241 0.01286,0.03215 -1.06e-4,-2.67e-4 0.01942,0.03883 0.01929,0.03858 -1.3e-4,-2.47e-4 0.01944,0.03239 0.01929,0.03215 -1.54e-4,-2.47e-4 0.01946,0.02594 0.01929,0.02572 -1.76e-4,-2.26e-4 0.02592,0.03236 0.02572,0.03215 l 1.240924,1.253784 c -2.03e-4,-2.06e-4 0.02594,0.02591 0.02572,0.02572 -2.27e-4,-1.91e-4 0.03239,0.02589 0.03215,0.02572 -2.47e-4,-1.68e-4 0.0324,0.01943 0.03215,0.01929 -2.47e-4,-1.44e-4 0.03885,0.01941 0.03858,0.01929 -2.67e-4,-1.18e-4 0.03886,0.01295 0.03858,0.01286 -2.88e-4,-9.1e-5 0.03243,0.01292 0.03215,0.01286 -2.88e-4,-6.4e-5 0.03887,0.0065 0.03858,0.0064 -2.88e-4,-3.5e-5 0.0453,7e-6 0.04501,0 -2.88e-4,-6e-6 0.03887,-2.1e-5 0.03858,0 -2.88e-4,2.2e-5 0.03887,-0.0065 0.03858,-0.0064 -2.88e-4,5e-5 0.03886,-0.0065 0.03858,-0.0064 -2.88e-4,7.9e-5 0.03242,-0.01296 0.03215,-0.01286 -2.67e-4,1.05e-4 0.03884,-0.01299 0.03858,-0.01286 -2.67e-4,1.31e-4 0.0324,-0.01945 0.03215,-0.01929 -2.47e-4,1.56e-4 0.03238,-0.0259 0.03215,-0.02572 -2.27e-4,1.8e-4 0.03236,-0.02592 0.03215,-0.02572 l 0.94516,-0.93873 0.906582,0.925871 c -1.05e-4,-1.09e-4 0.01297,0.01296 0.01286,0.01286 -1.1e-4,-1.03e-4 0.0194,0.01296 0.01929,0.01286 -1.15e-4,-9.8e-5 0.01298,0.01295 0.01286,0.01286 -1.2e-4,-9.2e-5 0.01941,0.01295 0.01929,0.01286 -1.25e-4,-8.6e-5 0.01299,0.01294 0.01286,0.01286 -1.29e-4,-8e-5 0.01942,0.01293 0.01929,0.01286 -1.32e-4,-7.3e-5 0.01942,0.0065 0.01929,0.0064 -1.36e-4,-6.7e-5 0.01943,0.0065 0.01929,0.0064 -1.39e-4,-5.9e-5 0.013,0.0065 0.01286,0.0064 -1.42e-4,-5.2e-5 0.01943,0.0065 0.01929,0.0064 -1.44e-4,-4.4e-5 0.01943,0.0065 0.01929,0.0064 -1.46e-4,-3.8e-5 0.02587,0.0065 0.02572,0.0064 -1.48e-4,-3e-5 0.01944,0.0065 0.01929,0.0064 -1.49e-4,-2.2e-5 0.01944,1.6e-5 0.01929,0 -1.51e-4,-1.5e-5 0.01944,8e-6 0.01929,0 -1.51e-4,-7e-6 0.01944,0 0.01929,0 -1.51e-4,0 0.01944,-7e-6 0.01929,0 -1.51e-4,8e-6 0.01944,-1.5e-5 0.01929,0 -1.51e-4,1.6e-5 0.01944,-2.2e-5 0.01929,0 -1.5e-4,2.3e-5 0.01944,-0.0065 0.01929,-0.0064 -1.48e-4,3e-5 0.02586,-0.0065 0.02572,-0.0064 -1.46e-4,3.8e-5 0.01943,-0.0065 0.01929,-0.0064 -1.44e-4,4.5e-5 0.01943,-0.0065 0.01929,-0.0064 -1.42e-4,5.2e-5 0.013,-0.0065 0.01286,-0.0064 -1.38e-4,5.9e-5 0.01943,-0.0065 0.01929,-0.0064 -1.35e-4,6.6e-5 0.01942,-0.0065 0.01929,-0.0064 -1.32e-4,7.3e-5 0.01942,-0.01294 0.01929,-0.01286 -1.28e-4,7.9e-5 0.01298,-0.01295 0.01286,-0.01286 -1.25e-4,8.6e-5 0.01941,-0.01295 0.01929,-0.01286 -1.2e-4,9.2e-5 0.01297,-0.01296 0.01286,-0.01286 -1.15e-4,9.8e-5 0.0194,-0.01296 0.01929,-0.01286 -1.1e-4,1.04e-4 0.01296,-0.01297 0.01286,-0.01286 l 1.279503,-1.292362 c -2.02e-4,2.06e-4 0.0259,-0.03238 0.02572,-0.03215 -1.8e-4,2.26e-4 0.02588,-0.0324 0.02572,-0.03215 -1.57e-4,2.47e-4 0.01942,-0.03241 0.01929,-0.03215 -1.32e-4,2.68e-4 0.01296,-0.03885 0.01286,-0.03858 -1.05e-4,2.68e-4 0.01294,-0.03243 0.01286,-0.03215 -7.9e-5,2.88e-4 0.0065,-0.03887 0.0064,-0.03858 -5e-5,2.88e-4 0.0065,-0.03887 0.0064,-0.03858 -2.2e-5,2.88e-4 -7e-6,-0.03887 0,-0.03858 7e-6,2.88e-4 -3.6e-5,-0.0453 0,-0.04501 3.5e-5,2.88e-4 -0.0065,-0.03886 -0.0064,-0.03858 6.4e-5,2.88e-4 -0.01295,-0.03243 -0.01286,-0.03215 9.1e-5,2.88e-4 -0.01298,-0.03885 -0.01286,-0.03858 1.18e-4,2.68e-4 -0.01943,-0.03883 -0.01929,-0.03858 1.43e-4,2.46e-4 -0.01946,-0.03239 -0.01929,-0.03215 1.68e-4,2.47e-4 -0.02591,-0.03237 -0.02572,-0.03215 1.91e-4,2.26e-4 -0.02593,-0.02592 -0.02572,-0.02572 l -0.906582,-0.887293 0.906582,-0.887293 c -2.05e-4,2.03e-4 0.02591,-0.02594 0.02572,-0.02572 -1.91e-4,2.26e-4 0.02589,-0.03239 0.02572,-0.03215 -1.69e-4,2.47e-4 0.01943,-0.0324 0.01929,-0.03215 -1.44e-4,2.47e-4 0.01941,-0.03885 0.01929,-0.03858 -1.19e-4,2.67e-4 0.01295,-0.03886 0.01286,-0.03858 -9.2e-5,2.88e-4 0.01292,-0.03243 0.01286,-0.03215 -6.4e-5,2.88e-4 0.0065,-0.03887 0.0064,-0.03858 -3.6e-5,2.88e-4 7e-6,-0.0453 0,-0.04501 -7e-6,2.88e-4 -2.2e-5,-0.03887 0,-0.03858 2.2e-5,2.88e-4 -0.0065,-0.03887 -0.0064,-0.03858 5.1e-5,2.88e-4 -0.0065,-0.03886 -0.0064,-0.03858 7.8e-5,2.88e-4 -0.01297,-0.03242 -0.01286,-0.03215 1.06e-4,2.67e-4 -0.01299,-0.03884 -0.01286,-0.03858 1.32e-4,2.68e-4 -0.01944,-0.0324 -0.01929,-0.03215 1.57e-4,2.47e-4 -0.0259,-0.03238 -0.02572,-0.03215 1.8e-4,2.27e-4 -0.02592,-0.03236 -0.02572,-0.03215 L 19.774609,8.9665273 c 1.05e-4,1.08e-4 -0.01297,-0.01296 -0.01286,-0.01286 1.1e-4,1.04e-4 -0.0194,-0.01296 -0.01929,-0.01286 1.15e-4,9.8e-5 -0.01298,-0.01295 -0.01286,-0.01286 1.19e-4,9.2e-5 -0.01941,-0.01295 -0.01929,-0.01286 1.24e-4,8.6e-5 -0.01299,-0.01294 -0.01286,-0.01286 1.29e-4,7.9e-5 -0.01942,-0.01293 -0.01929,-0.01286 1.33e-4,7.2e-5 -0.01942,-0.0065 -0.01929,-0.0064 1.36e-4,6.6e-5 -0.01943,-0.0065 -0.01929,-0.0064 1.39e-4,6e-5 -0.013,-0.0065 -0.01286,-0.0064 1.42e-4,5.2e-5 -0.01943,-0.0065 -0.01929,-0.0064 1.44e-4,4.5e-5 -0.01943,-0.0065 -0.01929,-0.0064 1.46e-4,3.8e-5 -0.02587,-0.0065 -0.02572,-0.0064 1.47e-4,3e-5 -0.01944,-0.0065 -0.01929,-0.0064 1.49e-4,2.3e-5 -0.01944,-1.5e-5 -0.01929,0 1.5e-4,1.5e-5 -0.01944,-8e-6 -0.01929,0 1.5e-4,8e-6 -0.01944,0 -0.01929,0 1.51e-4,0 -0.01944,8e-6 -0.01929,0 1.5e-4,-8e-6 -0.01944,1.5e-5 -0.01929,0 1.5e-4,-1.5e-5 -0.01944,2.3e-5 -0.01929,0 1.49e-4,-2.3e-5 -0.01944,0.0065 -0.01929,0.0064 1.48e-4,-3.1e-5 -0.02586,0.0065 -0.02572,0.0064 1.46e-4,-3.7e-5 -0.01943,0.0065 -0.01929,0.0064 1.44e-4,-4.5e-5 -0.01943,0.0065 -0.01929,0.0064 1.42e-4,-5.2e-5 -0.013,0.0065 -0.01286,0.0064 1.39e-4,-5.9e-5 -0.01943,0.0065 -0.01929,0.0064 1.36e-4,-6.6e-5 -0.01942,0.0065 -0.01929,0.0064 1.32e-4,-7.3e-5 -0.01942,0.01294 -0.01929,0.01286 1.28e-4,-7.9e-5 -0.01298,0.01295 -0.01286,0.01286 1.24e-4,-8.6e-5 -0.01941,0.01295 -0.01929,0.01286 1.19e-4,-9.2e-5 -0.01298,0.01296 -0.01286,0.01286 1.15e-4,-9.8e-5 -0.0194,0.01296 -0.01929,0.01286 1.1e-4,-1.03e-4 -0.01296,0.01297 -0.01286,0.01286 l -0.906582,0.925871 -0.93873,-0.932301 c 3.5e-5,3.5e-5 -0.0043,-0.0044 -0.0064,-0.0064 -0.0043,-0.0041 -0.01293,-0.01293 -0.01286,-0.01286 1.11e-4,1.01e-4 -0.01298,-0.01295 -0.01286,-0.01286 1.16e-4,9.5e-5 -0.01298,-0.01295 -0.01286,-0.01286 1.2e-4,9e-5 -0.01941,-0.0065 -0.01929,-0.0064 1.25e-4,8.3e-5 -0.01942,-0.01294 -0.01929,-0.01286 1.29e-4,7.7e-5 -0.01299,-0.01293 -0.01286,-0.01286 1.32e-4,7e-5 -0.01942,-0.0065 -0.01929,-0.0064 1.36e-4,6.4e-5 -0.01943,-0.0065 -0.01929,-0.0064 1.39e-4,5.6e-5 -0.01943,-0.0065 -0.01929,-0.0064 1.41e-4,5e-5 -0.01943,-0.0065 -0.01929,-0.0064 1.44e-4,4.3e-5 -0.01944,-0.0065 -0.01929,-0.0064 1.46e-4,3.5e-5 -0.01944,-0.0065 -0.01929,-0.0064 1.47e-4,2.8e-5 -0.01944,-2.1e-5 -0.01929,0 1.48e-4,2.1e-5 -0.01944,-0.0064 -0.01929,-0.0064 1.49e-4,1.4e-5 -0.01944,-5e-6 -0.01929,0 1.5e-4,6e-6 -0.01944,2e-6 -0.01929,0 a 0.2050445,0.2050445 0 0 0 -0.01286,0 c 1.49e-4,-9e-6 -0.01944,1.8e-5 -0.01929,0 z"
     id="path3761"
     style="opacity:0.1;fill:#000000;fill-opacity:1;fill-rule:evenodd;stroke:none;display:inline" />
  <path
     inkscape:connector-curvature="0"
     d="m 17.022637,9.0501953 a 0.19603426,0.19603426 0 0 0 -0.09644,0.05787 l -1.240924,1.2537837 a 0.19603426,0.19603426 0 0 0 0,0.270045 l 1.067323,1.080183 -1.067323,1.080183 a 0.19603426,0.19603426 0 0 0 0,0.270046 l 1.240924,1.253783 a 0.19603426,0.19603426 0 0 0 0.276475,0.0064 l 1.086613,-1.080183 1.054464,1.073753 a 0.19603426,0.19603426 0 0 0 0.282905,0 l 1.279502,-1.292361 a 0.19603426,0.19603426 0 0 0 -0.0064,-0.276476 l -1.060894,-1.035175 1.060894,-1.035175 a 0.19603426,0.19603426 0 0 0 0.0064,-0.276475 L 19.626654,9.1080353 a 0.19603426,0.19603426 0 0 0 -0.282905,0 L 18.289285,10.181788 17.202672,9.1016053 a 0.19603426,0.19603426 0 0 0 -0.18003,-0.05144 z"
     id="path3757"
     style="opacity:0.15;fill:#000000;fill-opacity:1;fill-rule:evenodd;stroke:none;display:inline" />
  <path
     d="m 15.82672,12.92728 1.239261,1.253784 1.220196,-1.215206 1.201129,1.215206 1.277393,-1.292362 -1.20113,-1.176627 1.20113,-1.176628 -1.277393,-1.2923617 -1.201129,1.2152057 -1.220196,-1.2152057 -1.239261,1.2537837 1.201131,1.215206 -1.201131,1.215205 z"
     inkscape:connector-curvature="0"
     id="path3751"
     style="opacity:0.3;fill:#000000;fill-opacity:1;fill-rule:evenodd;stroke:none;display:inline" />
  <path
     d="m 15.82672,12.721531 1.239261,1.253783 1.220196,-1.215205 1.201129,1.215205 1.277393,-1.292361 -1.20113,-1.176627 1.20113,-1.176628 -1.277393,-1.2923617 -1.201129,1.2152057 -1.220196,-1.2152057 -1.239261,1.2537837 1.201131,1.215206 -1.201131,1.215205 z"
     inkscape:connector-curvature="0"
     id="path7165"
     style="fill:url(#linearGradient3227);fill-opacity:1;fill-rule:evenodd;stroke:none;display:inline" />
  <path
     d="m 17.067645,9.0373363 -1.240925,1.2537827 0.205749,0.20575 1.035176,-1.0480347 1.221635,1.2152057 1.195917,-1.2152057 1.073753,1.0801827 0.205749,-0.19932 L 19.485197,9.0373363 18.28928,10.252542 17.067645,9.0373363 z m -0.04009,2.4640127 -1.200839,1.220182 0.205749,0.205749 0.996598,-1.009457 -0.0015,-0.416474 z m 2.539489,0.0097 -0.0047,0.406749 0.996597,0.977309 0.205749,-0.212179 -1.197651,-1.171879 z"
     inkscape:connector-curvature="0"
     id="path2970"
     style="opacity:0.2;fill:#ffffff;fill-opacity:1;fill-rule:evenodd;stroke:none;display:inline" />
</svg>
