<?xml version="1.0" encoding="UTF-8" standalone="no"?>
<!-- Created with Inkscape (http://www.inkscape.org/) -->

<svg
   xmlns:dc="http://purl.org/dc/elements/1.1/"
   xmlns:cc="http://creativecommons.org/ns#"
   xmlns:rdf="http://www.w3.org/1999/02/22-rdf-syntax-ns#"
   xmlns:svg="http://www.w3.org/2000/svg"
   xmlns="http://www.w3.org/2000/svg"
   xmlns:sodipodi="http://sodipodi.sourceforge.net/DTD/sodipodi-0.dtd"
   xmlns:inkscape="http://www.inkscape.org/namespaces/inkscape"
   id="svg3330"
   height="24"
   width="24"
   version="1.1"
   inkscape:version="0.48.1 r9760"
   sodipodi:docname="audio-input-microphone-medium-panel.svg">
  <defs
     id="defs12" />
  <sodipodi:namedview
     pagecolor="#ffffff"
     bordercolor="#666666"
     borderopacity="1"
     objecttolerance="10"
     gridtolerance="10"
     guidetolerance="10"
     inkscape:pageopacity="0"
     inkscape:pageshadow="2"
     inkscape:window-width="1378"
     inkscape:window-height="836"
     id="namedview10"
     showgrid="false"
     inkscape:zoom="14.672466"
     inkscape:cx="-7.7227397"
     inkscape:cy="13.169963"
     inkscape:window-x="499"
     inkscape:window-y="25"
     inkscape:window-maximized="0"
     inkscape:current-layer="svg3330" />
  <metadata
     id="metadata3335">
    <rdf:RDF>
      <cc:Work
         rdf:about="">
        <dc:format>image/svg+xml</dc:format>
        <dc:type
           rdf:resource="http://purl.org/dc/dcmitype/StillImage" />
        <dc:title></dc:title>
      </cc:Work>
    </rdf:RDF>
  </metadata>
  <g
     id="layer1"
     transform="translate(0,8)">
    <path
       id="path3122-6"
       style="opacity:.3;color:#ffffff;fill:#fff"
       d="m8-5c-1.662 0-3 1.338-3 3v8c0 1.662 1.338 3 3 3s3-1.338 3-3v-8c0-1.662-1.338-3-3-3zm-6 7v1h1v3c0 2.4238 1.7175 4.4415 4 4.9062v2.094h-1v1h4v-1h-1v-2.0938c2.283-0.464 4-2.4822 4-4.906v-3h1v-1h-1-1v4c0 2.216-1.784 4-4 4s-4-1.784-4-4v-4h-1-1z" />
    <path
       id="path3122"
       style="color:#ffffff;fill:#3c3c3c"
       d="m8-6c-1.662 0-3 1.338-3 3v8c0 1.662 1.338 3 3 3s3-1.338 3-3v-8c0-1.662-1.338-3-3-3zm-6 7v1h1v3c0 2.4238 1.7175 4.4415 4 4.9062v2.0938h-1v1h4v-1h-1v-2.0938c2.283-0.4647 4-2.4824 4-4.9062v-3h1v-1h-1-1v4c0 2.216-1.784 4-4 4s-4-1.784-4-4v-4h-1-1z" />
    <g
       id="g3022"
       transform="translate(1,-1)">
      <path
         id="path3209-4"
         style="opacity:.3;stroke-width:1.7;stroke:#fff;stroke-linecap:round;fill:none"
         d="m17.12 0.095476s-1.8454 1.7448-1.7797 5.4045c0.0662 3.6901 1.8093 5.4045 1.8093 5.4045m3-8.6827s-0.98347 0.79498-1.0085 3.2306c-0.02476 2.4053 1.0085 3.3256 1.0085 3.3256" />
      <path
         id="path3209"
         style="fill:none;stroke:#3c3c3c;stroke-width:1.70000005;stroke-linecap:round"
         d="m 20.1496,1.22178 c 0,0 -0.98347,0.79498 -1.0085,3.2306 -0.02476,2.4053 1.0085,3.3256 1.0085,3.3256"
         inkscape:connector-curvature="0"
         sodipodi:nodetypes="ccc" />
    </g>
  </g>
  <path
     d="m 18.175222,6.0953801 c 0,0 -1.8454,1.7448001 -1.7797,5.4044999 0.0662,3.6901 1.8093,5.4045 1.8093,5.4045"
     style="opacity:0.4;fill:none;stroke:#3c3c3c;stroke-width:1.70000005;stroke-linecap:round"
     id="path3209-1-6"
     inkscape:connector-curvature="0"
     sodipodi:nodetypes="ccc" />
</svg>
