<?xml version="1.0" encoding="UTF-8" standalone="no"?>
<!-- Created with Inkscape (http://www.inkscape.org/) -->

<svg
   xmlns:dc="http://purl.org/dc/elements/1.1/"
   xmlns:cc="http://creativecommons.org/ns#"
   xmlns:rdf="http://www.w3.org/1999/02/22-rdf-syntax-ns#"
   xmlns:svg="http://www.w3.org/2000/svg"
   xmlns="http://www.w3.org/2000/svg"
   xmlns:xlink="http://www.w3.org/1999/xlink"
   xmlns:sodipodi="http://sodipodi.sourceforge.net/DTD/sodipodi-0.dtd"
   xmlns:inkscape="http://www.inkscape.org/namespaces/inkscape"
   id="svg2453"
   height="32"
   width="32"
   version="1.1"
   inkscape:version="0.48.1 r9760"
   sodipodi:docname="user-trash.svg">
  <metadata
     id="metadata39">
    <rdf:RDF>
      <cc:Work
         rdf:about="">
        <dc:format>image/svg+xml</dc:format>
        <dc:type
           rdf:resource="http://purl.org/dc/dcmitype/StillImage" />
      </cc:Work>
    </rdf:RDF>
  </metadata>
  <sodipodi:namedview
     pagecolor="#ffffff"
     bordercolor="#666666"
     borderopacity="1"
     objecttolerance="10"
     gridtolerance="10"
     guidetolerance="10"
     inkscape:pageopacity="0"
     inkscape:pageshadow="2"
     inkscape:window-width="876"
     inkscape:window-height="480"
     id="namedview37"
     showgrid="false"
     inkscape:zoom="2"
     inkscape:cx="31.997764"
     inkscape:cy="31.487523"
     inkscape:window-x="734"
     inkscape:window-y="98"
     inkscape:window-maximized="0"
     inkscape:current-layer="svg2453" />
  <defs
     id="defs2455">
    <radialGradient
       id="radialGradient2470"
       gradientUnits="userSpaceOnUse"
       cy="108.02"
       cx="62.712002"
       gradientTransform="matrix(0.34177,0,0,0.096822,8.9999,26.467)"
       r="47.382999">
      <stop
         id="stop5062"
         offset="0" />
      <stop
         id="stop5064"
         style="stop-opacity:0"
         offset="1" />
    </radialGradient>
    <linearGradient
       id="linearGradient2474"
       y2="68.297997"
       xlink:href="#linearGradient2793"
       spreadMethod="reflect"
       gradientUnits="userSpaceOnUse"
       x2="37.462002"
       gradientTransform="matrix(0.83279,0,0,0.75432,5.0245,-4.3199)"
       y1="52.355"
       x1="27.405001" />
    <linearGradient
       id="linearGradient2505"
       y2="57.745998"
       gradientUnits="userSpaceOnUse"
       x2="29.233"
       gradientTransform="matrix(0.77128,0,0,0.78333,7.4727,-5.9068)"
       y1="-10.246"
       x1="29.233">
      <stop
         id="stop4296"
         style="stop-color:#e6e7e7"
         offset="0" />
      <stop
         id="stop4298"
         style="stop-color:#676b73"
         offset="1" />
    </linearGradient>
    <linearGradient
       id="linearGradient2503"
       y2="39.750999"
       gradientUnits="userSpaceOnUse"
       x2="35.514999"
       gradientTransform="matrix(0.93305,0,0,1.1089,11.093,-19.891)"
       y1="38.130001"
       x1="4.8850002">
      <stop
         id="stop3317"
         style="stop-color:#f8f8f8;stop-opacity:.15464"
         offset="0" />
      <stop
         id="stop3322"
         style="stop-color:#b0b2b6;stop-opacity:.17526"
         offset=".49817" />
      <stop
         id="stop3319"
         style="stop-color:#5b5e62;stop-opacity:.32990"
         offset=".83784" />
      <stop
         id="stop2342"
         style="stop-color:#fff;stop-opacity:.15464"
         offset="1" />
    </linearGradient>
    <linearGradient
       id="linearGradient2499"
       y2="17.834"
       xlink:href="#linearGradient2793"
       spreadMethod="reflect"
       gradientUnits="userSpaceOnUse"
       x2="62.373001"
       gradientTransform="matrix(0.45511,0,0,0.40902,0.92763,-8.9343)"
       y1="17.834"
       x1="97.718002" />
    <linearGradient
       id="linearGradient2495"
       y2="37.216999"
       xlink:href="#linearGradient2793"
       spreadMethod="reflect"
       gradientUnits="userSpaceOnUse"
       x2="64"
       gradientTransform="matrix(0.44131,0,0,0.4047,1.8109,-8.9473)"
       y1="37.216999"
       x1="32.626999" />
    <linearGradient
       id="linearGradient2492"
       y2="31.226"
       gradientUnits="userSpaceOnUse"
       x2="63.999001"
       gradientTransform="matrix(0.42377,0,0,0.43038,2.9335,-10.684)"
       y1="6.4738002"
       x1="63.999001">
      <stop
         id="stop4304"
         style="stop-color:#c0c0c0"
         offset="0" />
      <stop
         id="stop4306"
         style="stop-color:#abacb0"
         offset="1" />
    </linearGradient>
    <linearGradient
       id="linearGradient2793">
      <stop
         id="stop2795"
         style="stop-color:#555753"
         offset="0" />
      <stop
         id="stop2797"
         style="stop-color:#d3d7cf;stop-opacity:0"
         offset="1" />
    </linearGradient>
    <linearGradient
       id="linearGradient2489"
       y2="10.9"
       xlink:href="#linearGradient2793"
       spreadMethod="reflect"
       gradientUnits="userSpaceOnUse"
       x2="55.992001"
       gradientTransform="matrix(0.3699,0,0,0.37568,6.3806,-5.4271)"
       y1="47.258999"
       x1="92.004997" />
  </defs>
  <g
     id="layer1"
     transform="matrix(0.6837487,0,0,0.6837487,-4.5483649,3.6150615)">
    <path
       id="path12941"
       style="fill:url(#radialGradient2470);fill-rule:evenodd"
       d="m 46.627,36.926 a 16.194,4.5877 0 0 1 -32.388,0 16.194,4.5877 0 1 1 32.388,0 z"
       inkscape:connector-curvature="0" />
    <path
       id="path5870"
       style="fill:#d9dcd5;fill-rule:evenodd;stroke:#838383;stroke-width:0.37278;stroke-linecap:round;stroke-linejoin:round"
       d="m 43.609,35.758 a 13.555,3.2211 0 0 1 -27.109,0 13.555,3.2211 0 1 1 27.109,0 z"
       inkscape:connector-curvature="0" />
    <path
       id="path18342"
       style="opacity:0.77272997;fill:#585858;fill-opacity:0.51309001;fill-rule:evenodd;stroke:#636363;stroke-width:0.37278;stroke-linecap:round;stroke-linejoin:round"
       d="m 45.85,0.88795 a 14.926,3.0752 0 0 1 -29.852,0 14.926,3.0752 0 1 1 29.852,0 z"
       inkscape:connector-curvature="0" />
    <path
       id="path3037"
       style="opacity:0.5;fill:url(#linearGradient2474);fill-rule:evenodd"
       d="m 43.609,35.758 a 13.555,3.2211 0 0 1 -27.109,0 13.555,3.2211 0 1 1 27.109,0 z"
       inkscape:connector-curvature="0" />
    <path
       id="path1751"
       style="fill:url(#linearGradient2503);fill-rule:evenodd;stroke:url(#linearGradient2505);stroke-width:0.23077001;stroke-linecap:round;stroke-linejoin:round"
       d="m 13.29,2.0234 c -0.035,-0.04571 3.0696,32.883 3.0701,32.893 0.13223,3.2885 5.8912,3.8802 13.841,4.1386 9.7139,-0.10171 13.359,-1.7584 13.496,-4.0451 0.01104,-0.04509 3.115,-32.941 3.126,-32.986 1.8346,-7.2804 -12.778,-6.7452 -17.896,-6.7452 -5.495,0 -17.705,-0.17113 -15.637,6.7452 z"
       inkscape:connector-curvature="0" />
    <path
       id="path18338"
       style="fill:#d9dcd5;fill-rule:evenodd"
       d="m 14.47,1.2066 c 0,0 12.395,-3.9065 30.594,-0.57494 6.94,-5.2536 -16.366,-5.638 -16.366,-5.638 0,0 -19.989,1.0875 -14.228,6.2129 z"
       inkscape:connector-curvature="0" />
    <path
       id="path13701"
       style="fill:url(#linearGradient2499);fill-rule:evenodd;stroke:#636363;stroke-width:0.3574;stroke-linecap:round;stroke-linejoin:round"
       d="m 14.463,1.2143 c 0,0 12.401,-3.5891 30.609,-0.52824 6.9426,-4.8268 -16.374,-5.18 -16.374,-5.18 0,0 -19.998,0.99915 -14.235,5.7082 z"
       inkscape:connector-curvature="0" />
    <path
       id="path18314"
       style="fill:#ffffff;fill-rule:evenodd;stroke:#808389;stroke-width:0.18604;stroke-linecap:round;stroke-linejoin:round"
       d="m 42.806,-3.3005 c 0.01818,0.00482 0.03867,0.00905 0.05686,0.013913 0.08129,0.021749 0.16039,0.046899 0.24167,0.06956 0.01952,0.00542 0.03736,0.00844 0.05686,0.013913 0.0473,0.013328 0.09501,0.028051 0.14216,0.041736 0.01384,0.004 0.02882,0.00988 0.04265,0.013912 0.0091,0.00265 0.01939,-0.00267 0.02843,0 0.02488,0.0073 0.04627,0.020414 0.07107,0.027824 0.02912,0.00873 0.0563,0.018935 0.08529,0.027824 0.02011,0.00612 0.03682,0.00771 0.05686,0.013913 0.04659,0.01448 0.09599,0.026817 0.14216,0.041736 0.01223,0.00393 0.03045,0.00995 0.04265,0.013913 0.03877,0.012685 0.07532,0.028716 0.11372,0.041737 0.01375,0.00463 0.02896,0.00924 0.04265,0.013912 0.09079,0.031256 0.18195,0.064046 0.27009,0.097385 0.02334,0.00877 0.04795,0.018902 0.07107,0.027824 0.02712,0.010518 0.04428,0.017087 0.07108,0.027824 0.05524,0.022132 0.11682,0.046452 0.17059,0.06956 0.01812,0.00772 0.03892,0.019988 0.05686,0.027824 0.0041,0.00184 0.01007,-0.00184 0.01422,0 0.02694,0.011983 0.05879,0.029483 0.08529,0.041736 0.01427,0.0066 0.02851,0.00723 0.04265,0.013912 0.0052,0.00245 0.009,0.011455 0.01422,0.013913 0.05084,0.024237 0.10737,0.04424 0.15637,0.06956 0.01304,0.00674 0.02975,0.02101 0.04264,0.027824 0.01649,0.0087 0.0406,0.018996 0.05686,0.027824 0.0095,0.00516 0.01908,0.00871 0.02843,0.013913 0.0099,0.00548 0.01861,0.00838 0.02843,0.013912 0.0093,0.00525 0.005,0.00862 0.01422,0.013912 0.0093,0.00529 0.01924,0.00858 0.02844,0.013913 0.0091,0.00534 0.01941,0.00853 0.02843,0.013913 0.0047,0.00276 0.0096,0.011141 0.01422,0.013912 0.02243,0.013525 0.0492,0.027913 0.07107,0.041736 0.0093,0.00583 0.01925,0.00803 0.02843,0.013913 0.01212,0.00781 0.01649,0.019919 0.02844,0.027823 0.01365,0.00903 0.02924,0.018663 0.04265,0.027824 0.04619,0.031407 0.09899,0.064419 0.14215,0.097385 0.0039,0.00302 0.01035,0.010883 0.01422,0.013913 0.04353,0.033634 0.08778,0.062062 0.12794,0.097385 0.0029,0.00254 -0.0029,0.011361 0,0.013912 0.01227,0.010909 0.03071,0.01675 0.04265,0.027824 0.0069,0.00647 0.0074,0.0213 0.01422,0.027824 0.0094,0.00895 0.01929,0.018762 0.02843,0.027824 0.0033,0.0033 0.01094,-0.00332 0.01422,0 0.0034,0.00341 0.01084,0.010488 0.01422,0.013912 0.0091,0.00934 0.01958,0.018371 0.02843,0.027824 0.0022,0.00231 -0.0022,0.011595 0,0.013913 0.0037,0.00407 0.0105,0.00982 0.01422,0.013912 0.04282,0.046685 0.07695,0.089577 0.11372,0.13912 0.0075,0.010089 0.02119,0.017615 0.02843,0.027824 0.0023,0.00313 -0.0022,0.010769 0,0.013913 0.0031,0.00439 0.0112,0.0095 0.01422,0.013912 0.0086,0.012664 0.02023,0.028886 0.02843,0.041737 0.0033,0.00661 0.01106,0.00727 0.01422,0.013913 0.0064,0.01319 0.0086,0.028577 0.01422,0.041736 0.01382,0.033551 0.01974,0.063218 0.02843,0.097384 0.0055,0.019855 0.01069,0.049473 0.01422,0.06956 0.0011,0.00688 -8.77e-4,0.00702 0,0.013913 0.0016,0.010069 0.01315,0.01767 0.01422,0.027824 0.0014,0.017262 2.3e-5,0.038361 0,0.055648 -0.0011,0.011106 0.0015,0.030743 0,0.041736 -0.0011,0.0073 -0.01296,0.020572 -0.01422,0.027824 -0.0019,0.010879 0.0023,0.017059 0,0.027824 -0.01005,0.050416 -0.02423,0.091117 -0.04265,0.13912 -0.0027,0.00686 0.0028,0.0071 0,0.013912 -0.0043,0.010941 -0.0095,0.017006 -0.01422,0.027824 -0.0044,0.010141 -0.0095,0.017791 -0.01422,0.027824 -0.0062,0.013428 -0.0074,0.014586 -0.01422,0.027824 -0.0034,0.00662 -0.01063,0.021253 -0.01422,0.027824 -0.009,0.016431 -0.01853,0.039509 -0.02843,0.055649 -0.002,0.00322 -0.01216,-0.0032 -0.01422,0 -0.004,0.00643 0.0042,0.00752 0,0.013912 -0.02091,0.031926 -0.0466,0.06659 -0.07107,0.097385 -0.0049,0.00616 -0.0092,0.0078 -0.01422,0.013912 -0.005,0.00611 -0.0091,0.021754 -0.01422,0.027824 -0.04134,0.048579 -0.09267,0.093298 -0.14215,0.13912 -0.0062,0.00573 -0.0079,0.00823 -0.01422,0.013912 -0.01009,0.0091 -0.03226,0.018834 -0.04265,0.027824 -0.0065,0.0056 -0.0076,0.022265 -0.01422,0.027824 -0.02395,0.020022 -0.05992,0.036153 -0.08529,0.055648 -0.0042,0.00324 -0.0099,0.010688 -0.01422,0.013912 -0.04423,0.033378 -0.09407,0.065513 -0.14215,0.097385 -0.01086,0.0072 -0.01739,0.020702 -0.02843,0.027824 -0.01982,0.012664 -0.0507,0.029308 -0.07108,0.041737 -0.16634,0.10147 -0.35937,0.19121 -0.55441,0.27824 -0.03835,0.016976 -0.07463,0.039177 -0.11372,0.055648 -0.04362,0.018488 -0.08353,0.037772 -0.12794,0.055648 -0.03973,0.015995 -0.07347,0.026212 -0.11373,0.041737 -0.02013,0.00776 -0.05084,0.020176 -0.07107,0.027824 -0.0039,0.00147 -0.01032,-0.00146 -0.01422,0 -0.03645,0.013724 -0.06277,0.028374 -0.09951,0.041736 -0.06123,0.022255 -0.12311,0.048265 -0.1848,0.069561 -0.10283,0.035513 -0.21003,0.064343 -0.31274,0.097385 -0.06163,0.019825 -0.12372,0.03664 -0.1848,0.055648 -0.04686,0.014583 -0.09581,0.041521 -0.14216,0.055648 -0.07448,0.022707 -0.14067,0.034027 -0.21323,0.055649 -0.0343,0.00909 -0.07936,0.018852 -0.11372,0.027823 -0.05528,0.014434 -0.10092,0.027613 -0.15637,0.041736 -0.03446,0.00878 -0.07919,0.019165 -0.11372,0.027825 -0.05555,0.013932 -0.10065,0.028108 -0.15637,0.041736 -0.06024,0.014734 -0.12438,0.027355 -0.1848,0.041737 -0.18128,0.043143 -0.35727,0.085156 -0.54019,0.12521 -0.06097,0.013352 -0.12365,0.028719 -0.1848,0.041737 -0.09631,0.020501 -0.2018,0.035964 -0.29852,0.055647 -0.04821,0.00981 -0.09385,0.032126 -0.14216,0.041737 -0.0046,9.1944e-4 -0.0096,-9.1644e-4 -0.01422,0 -0.18898,0.03752 -0.37817,0.062841 -0.56862,0.097386 -0.06203,0.011252 -0.12262,0.03079 -0.1848,0.041736 -0.12437,0.021891 -0.24467,0.034959 -0.3696,0.055648 -0.0937,0.015517 -0.1903,0.040792 -0.28431,0.055648 -0.18802,0.029715 -0.37947,0.056308 -0.56862,0.083471 -0.06306,0.0091 -0.12163,0.019 -0.1848,0.027824 -0.12634,0.017561 -0.25704,0.02525 -0.38382,0.041737 -0.0634,0.00829 -0.1213,0.019796 -0.1848,0.027824 -0.06827,0.00858 -0.14484,0.019542 -0.21323,0.027824 -0.1134,0.013735 -0.22747,0.028801 -0.34117,0.041737 -0.0048,5.475e-4 -0.0095,-5.466e-4 -0.01422,0 -0.51483,0.058419 -1.0297,0.10961 -1.5495,0.15303 -0.12882,0.010859 -0.25478,0.017802 -0.38382,0.027824 -0.4516,0.034741 -0.91122,0.071925 -1.3647,0.097385 -0.12498,0.00707 -0.25877,0.00748 -0.38382,0.013912 -0.06482,0.0033 -0.13418,0.01078 -0.19902,0.013913 -0.12508,0.00609 -0.25871,0.00841 -0.38382,0.013912 -0.51882,0.022545 -1.0314,0.041809 -1.5495,0.055648 -0.12952,0.00349 -0.25443,0.010887 -0.38382,0.013913 -0.26338,0.00614 -0.5192,0.00946 -0.78186,0.013912 -0.13499,5.542e-4 -0.27707,-1.005e-4 -0.41225,0 -0.0046,3e-6 -0.0096,-1.5e-6 -0.01422,0 -0.06526,4.05e-5 -0.13372,6.97e-5 -0.19902,0 -0.0046,-6e-6 -0.0096,6.7e-6 -0.01422,0 -0.2752,-3.27e-4 -0.54876,0.00245 -0.8245,0 -0.0046,-4.35e-5 -0.0096,4.42e-5 -0.01422,0 -0.13557,-0.00128 -0.27658,-0.012065 -0.41225,-0.013912 -0.14031,-0.00186 -0.2861,0.00249 -0.42647,0 -0.14042,-0.00255 -0.2718,-0.010695 -0.41225,-0.013913 -0.0047,-1.08e-4 -0.0096,1.079e-4 -0.01422,0 -0.0702,-0.00158 -0.12881,0.00175 -0.19902,0 C 27.79607,1.773853 27.65052,1.767783 27.51007,1.7635 27.36961,1.75922 27.23824,1.75462 27.09782,1.749587 c -0.0047,-1.672e-4 -0.0096,1.689e-4 -0.01422,0 -0.13574,-0.00488 -0.27657,-0.0083 -0.41225,-0.013912 -0.20577,-0.00839 -0.41994,-0.01769 -0.62548,-0.027824 -0.0046,-2.332e-4 -0.0096,2.34e-4 -0.01422,0 -0.55584,-0.027518 -1.1104,-0.069606 -1.6632,-0.1113 -0.0046,-3.539e-4 -0.0096,3.541e-4 -0.01422,0 -0.41352,-0.03128 -0.82583,-0.071101 -1.2368,-0.1113 -0.0046,-4.546e-4 -0.0096,4.544e-4 -0.01422,0 -0.282,-0.0254 -0.554,-0.0502 -0.829,-0.0817 -0.069,-0.0079 -0.131,-0.0196 -0.199,-0.0278 -0.103,-0.0123 -0.21,-0.015 -0.313,-0.0279 -0.309,-0.0387 -0.618,-0.0804 -0.924,-0.1252 C 20.7361,1.207723 20.62729,1.182632 20.52547,1.167003 20.38971,1.146163 20.26265,1.133472 20.12744,1.111355 20.05983,1.100295 19.99589,1.081004 19.92842,1.069618 19.89053,1.063228 19.85253,1.062198 19.8147,1.055706 19.78099,1.049916 19.74887,1.047666 19.71519,1.041794 19.64787,1.030081 19.58335,1.012105 19.51617,1.000058 19.48258,0.994038 19.45021,0.992248 19.41666,0.986145 19.34956,0.97393 19.28458,0.956964 19.21764,0.944409 19.18417,0.938129 19.15157,0.936859 19.11813,0.930496 c -0.067,-0.01268 -0.132,-0.02862 -0.199,-0.0417 -0.267,-0.05228 -0.532,-0.10897 -0.796,-0.16694 C 18.0571,0.707363 17.98996,0.694977 17.92411,0.68012 17.85826,0.665262 17.79076,0.65361 17.72509,0.638383 17.69225,0.630773 17.65837,0.618266 17.62558,0.61056 17.5385,0.587009 17.44482,0.565426 17.35549,0.540999 17.31082,0.528785 17.27262,0.511733 17.22755,0.499262 17.13741,0.474321 17.04861,0.455819 16.95745,0.429701 16.91187,0.416642 16.86097,0.401356 16.81529,0.387965 16.76962,0.374573 16.73301,0.359977 16.68735,0.346228 16.64169,0.33248 16.59074,0.318623 16.54519,0.304492 16.49968,0.290363 16.44841,0.277296 16.40307,0.262758 16.33507,0.24095 16.27127,0.215993 16.20405,0.193197 16.15924,0.178001 16.12044,0.167128 16.07611,0.151461 16.05394,0.143631 16.02706,0.131592 16.00504,0.123636 15.96099,0.107725 15.92053,0.098319 15.8771,0.0819 15.79025,0.049063 15.70492,0.005623 15.62122,-0.0294 c -0.14647,-0.061285 -0.29317,-0.12596 -0.42647,-0.19477 -0.05332,-0.027525 -0.10566,-0.054623 -0.15637,-0.083473 -0.0036,-0.00206 -0.01063,0.00207 -0.01422,0 -0.02932,-0.0168 -0.04272,-0.038383 -0.07107,-0.055648 -0.0088,-0.00529 -0.01979,-0.00858 -0.02843,-0.013912 -0.0952,-0.058812 -0.18745,-0.11633 -0.2701,-0.18086 -0.0075,-0.00586 -0.0068,-0.00801 -0.01422,-0.013913 -0.01036,-0.00828 -0.0183,-0.019444 -0.02843,-0.027823 -0.0073,-0.00596 -0.0071,-0.00791 -0.01422,-0.013912 -0.06021,-0.050534 -0.11915,-0.098813 -0.17059,-0.15303 -0.0062,-0.00642 -0.0082,-0.00743 -0.01422,-0.013912 -0.01057,-0.011351 -0.01826,-0.030216 -0.02843,-0.041736 -0.0023,-0.00264 -0.01192,0.00264 -0.01422,0 -0.02541,-0.029023 -0.03414,-0.053371 -0.05686,-0.083473 -0.0052,-0.00681 -0.0092,-0.00704 -0.01422,-0.013913 -0.01727,-0.023376 -0.02707,-0.045519 -0.04265,-0.069561 -0.0046,-0.00704 -0.0097,-0.00681 -0.01422,-0.013912 -0.01797,-0.028423 -0.04135,-0.054101 -0.05686,-0.083473 -0.0038,-0.00734 -0.0105,-0.020422 -0.01422,-0.027824 -0.01303,-0.02591 -0.01738,-0.056814 -0.02843,-0.083472 -0.0047,-0.011426 -0.0098,-0.01626 -0.01422,-0.027824 -0.0021,-0.010718 0.0016,-0.031105 0,-0.041737 -0.0016,-0.01063 -0.0131,-0.017279 -0.01422,-0.027824 -0.0015,-0.01406 7.09e-4,-0.027828 0,-0.041737 -3.57e-4,-0.00696 1.65e-4,-0.00699 0,-0.013912 -1.61e-4,-0.00692 -2.9e-5,-0.020946 0,-0.027824 2.6e-5,-0.00688 -2.14e-4,-0.00707 0,-0.013912 4.38e-4,-0.013682 -0.0012,-0.028205 0,-0.041737 5.86e-4,-0.00677 -7.68e-4,-0.00718 0,-0.013912 0.0012,-0.010091 0.01265,-0.017817 0.01422,-0.027824 0.0016,-0.010007 -0.002,-0.031812 0,-0.041736 0.0013,-0.00662 -0.0015,-0.00733 0,-0.013912 0.0015,-0.00658 0.01255,-0.021282 0.01422,-0.027824 0.0017,-0.00655 -0.0018,-0.0074 0,-0.013912 0.0019,-0.00651 -0.002,-0.00744 0,-0.013913 0.008,-0.025903 0.01781,-0.058151 0.02843,-0.083473 0.0027,-0.00632 0.01139,-0.00763 0.01422,-0.013912 0.0042,-0.00943 0.0097,-0.018478 0.01422,-0.027824 0.0046,-0.00935 0.0093,-0.018561 0.01422,-0.027824 0.0049,-0.00926 0.009,-0.018642 0.01422,-0.027824 0.0018,-0.00306 -0.0018,-0.01086 0,-0.013913 0.0072,-0.012229 0.02066,-0.029649 0.02843,-0.041736 0.01169,-0.018096 0.01545,-0.023962 0.02843,-0.041736 0.0043,-0.00592 0.0097,-0.021935 0.01422,-0.027824 0.0044,-0.0059 0.0097,-0.00805 0.01422,-0.013913 0.0046,-0.00585 0.0095,-0.00809 0.01422,-0.013912 0.0095,-0.011662 0.01844,-0.030214 0.02843,-0.041736 0.007,-0.00805 0.02116,-0.00593 0.02843,-0.013913 0.01025,-0.011451 0.01768,-0.016512 0.02843,-0.027824 0.0054,-0.00564 0.0087,-0.022216 0.01422,-0.027824 0.011,-0.011243 0.01695,-0.01672 0.02843,-0.027824 0.0058,-0.00554 0.0084,-0.00841 0.01422,-0.013913 0.01173,-0.011035 0.03046,-0.030838 0.04265,-0.041736 0.0061,-0.00543 0.008,-0.00851 0.01422,-0.013913 0.01862,-0.016245 0.03725,-0.025799 0.05686,-0.041736 0.0066,-0.0053 0.02177,-0.00865 0.02843,-0.013912 0.02657,-0.021114 0.04289,-0.048988 0.07108,-0.069561 0.02119,-0.015383 0.04904,-0.026656 0.07107,-0.041736 0.02199,-0.015128 0.04829,-0.026908 0.07107,-0.041736 0.01523,-0.00985 0.02708,-0.018103 0.04265,-0.027824 0.07993,-0.050503 0.15393,-0.10602 0.24166,-0.15303 0.06792,-0.036396 0.14174,-0.063038 0.21323,-0.097385 0.05362,-0.02576 0.10122,-0.058847 0.15637,-0.083473 0.03677,-0.016418 0.07643,-0.025816 0.11372,-0.041736 0.01865,-0.00796 0.03811,-0.019988 0.05686,-0.027824 0.03752,-0.015672 0.07586,-0.026554 0.11372,-0.041736 0.01893,-0.00759 0.03786,-0.020355 0.05686,-0.027824 0.038,-0.014938 0.07555,-0.027282 0.11372,-0.041736 0.03816,-0.014455 0.07551,-0.027761 0.11373,-0.041737 0.03822,-0.013976 0.07558,-0.028234 0.11372,-0.041736 0.03815,-0.013502 0.07577,-0.028703 0.11372,-0.041736 0.01898,-0.00651 0.03795,-0.00752 0.05686,-0.013913 0.03781,-0.0128 0.07628,-0.029399 0.11372,-0.041737 0.05615,-0.018506 0.11561,-0.038169 0.17059,-0.055648 0.02071,-0.00606 0.03619,-0.00794 0.05686,-0.013912 0.06202,-0.017905 0.12276,-0.038348 0.1848,-0.055649 0.0041,-0.00115 0.01007,0.00115 0.01422,0 0.07862,-0.021877 0.16206,-0.048072 0.24167,-0.069561 -2.8924,0.34128 -4.6627,0.90972 -4.6627,1.9199 v 3.4919 c 0,2.1339 7.8823,3.8676 17.599,3.8676 9.7166,0 17.599,-1.7337 17.599,-3.8676 v -3.4919 c 0,-1.032 -1.8448,-1.6145 -4.8475,-1.9616 z"
       inkscape:connector-curvature="0" />
    <path
       id="path3959"
       style="fill:url(#linearGradient2495);fill-rule:evenodd;stroke-width:0"
       d="m 42.806,-3.3005 c 0.01818,0.00482 0.03867,0.00905 0.05686,0.013913 0.08129,0.021749 0.16039,0.046899 0.24167,0.06956 0.01952,0.00542 0.03736,0.00844 0.05686,0.013913 0.0473,0.013328 0.09501,0.028051 0.14216,0.041736 0.01384,0.004 0.02882,0.00988 0.04265,0.013912 0.0091,0.00265 0.01939,-0.00267 0.02843,0 0.02488,0.0073 0.04627,0.020414 0.07107,0.027824 0.02912,0.00873 0.0563,0.018935 0.08529,0.027824 0.02011,0.00612 0.03682,0.00771 0.05686,0.013913 0.04659,0.01448 0.09599,0.026817 0.14216,0.041736 0.01223,0.00393 0.03045,0.00995 0.04265,0.013913 0.03877,0.012685 0.07532,0.028716 0.11372,0.041737 0.01375,0.00463 0.02896,0.00924 0.04265,0.013912 0.09079,0.031256 0.18195,0.064046 0.27009,0.097385 0.02334,0.00877 0.04795,0.018902 0.07107,0.027824 0.02712,0.010518 0.04428,0.017087 0.07108,0.027824 0.05524,0.022132 0.11682,0.046452 0.17059,0.06956 0.01812,0.00772 0.03892,0.019988 0.05686,0.027824 0.0041,0.00184 0.01007,-0.00184 0.01422,0 0.02694,0.011983 0.05879,0.029483 0.08529,0.041736 0.01427,0.0066 0.02851,0.00723 0.04265,0.013912 0.0052,0.00245 0.009,0.011455 0.01422,0.013913 0.05084,0.024237 0.10737,0.04424 0.15637,0.06956 0.01304,0.00674 0.02975,0.02101 0.04264,0.027824 0.01649,0.0087 0.0406,0.018996 0.05686,0.027824 0.0095,0.00516 0.01908,0.00871 0.02843,0.013913 0.0099,0.00548 0.01861,0.00838 0.02843,0.013912 0.0093,0.00525 0.005,0.00862 0.01422,0.013912 0.0093,0.00529 0.01924,0.00858 0.02844,0.013913 0.0091,0.00534 0.01941,0.00853 0.02843,0.013913 0.0047,0.00276 0.0096,0.011141 0.01422,0.013912 0.02243,0.013525 0.0492,0.027913 0.07107,0.041736 0.0093,0.00583 0.01925,0.00803 0.02843,0.013913 0.01212,0.00781 0.01649,0.019919 0.02844,0.027823 0.01365,0.00903 0.02924,0.018663 0.04265,0.027824 0.04619,0.031407 0.09899,0.064419 0.14215,0.097385 0.0039,0.00302 0.01035,0.010883 0.01422,0.013913 0.04353,0.033634 0.08778,0.062062 0.12794,0.097385 0.0029,0.00254 -0.0029,0.011361 0,0.013912 0.01227,0.010909 0.03071,0.01675 0.04265,0.027824 0.0069,0.00647 0.0074,0.0213 0.01422,0.027824 0.0094,0.00895 0.01929,0.018762 0.02843,0.027824 0.0033,0.0033 0.01094,-0.00332 0.01422,0 0.0034,0.00341 0.01084,0.010488 0.01422,0.013912 0.0091,0.00934 0.01958,0.018371 0.02843,0.027824 0.0022,0.00231 -0.0022,0.011595 0,0.013913 0.0037,0.00407 0.0105,0.00982 0.01422,0.013912 0.04282,0.046685 0.07695,0.089577 0.11372,0.13912 0.0075,0.010089 0.02119,0.017615 0.02843,0.027824 0.0023,0.00313 -0.0022,0.010769 0,0.013913 0.0031,0.00439 0.0112,0.0095 0.01422,0.013912 0.0086,0.012664 0.02023,0.028886 0.02843,0.041737 0.0033,0.00661 0.01106,0.00727 0.01422,0.013913 0.0064,0.01319 0.0086,0.028577 0.01422,0.041736 0.01382,0.033551 0.01974,0.063218 0.02843,0.097384 0.0055,0.019855 0.01069,0.049473 0.01422,0.06956 0.0011,0.00688 -8.77e-4,0.00702 0,0.013913 0.0016,0.010069 0.01315,0.01767 0.01422,0.027824 0.0014,0.017262 2.3e-5,0.038361 0,0.055648 -0.0011,0.011106 0.0015,0.030743 0,0.041736 -0.0011,0.0073 -0.01296,0.020572 -0.01422,0.027824 -0.0019,0.010879 0.0023,0.017059 0,0.027824 -0.01005,0.050416 -0.02423,0.091117 -0.04265,0.13912 -0.0027,0.00686 0.0028,0.0071 0,0.013912 -0.0043,0.010941 -0.0095,0.017006 -0.01422,0.027824 -0.0044,0.010141 -0.0095,0.017791 -0.01422,0.027824 -0.0062,0.013428 -0.0074,0.014586 -0.01422,0.027824 -0.0034,0.00662 -0.01063,0.021253 -0.01422,0.027824 -0.009,0.016431 -0.01853,0.039509 -0.02843,0.055649 -0.002,0.00322 -0.01216,-0.0032 -0.01422,0 -0.004,0.00643 0.0042,0.00752 0,0.013912 -0.02091,0.031926 -0.0466,0.06659 -0.07107,0.097385 -0.0049,0.00616 -0.0092,0.00779 -0.01422,0.013912 -0.005,0.00611 -0.0091,0.021754 -0.01422,0.027824 -0.04134,0.048579 -0.09267,0.093298 -0.14215,0.13912 -0.0062,0.00573 -0.0079,0.00823 -0.01422,0.013912 -0.01009,0.0091 -0.03226,0.018834 -0.04265,0.027824 -0.0065,0.0056 -0.0076,0.022265 -0.01422,0.027824 -0.02395,0.020023 -0.05992,0.036153 -0.08529,0.055649 -0.0042,0.00324 -0.0099,0.010688 -0.01422,0.013912 -0.04423,0.033378 -0.09407,0.065513 -0.14215,0.097384 -0.01086,0.0072 -0.01739,0.020702 -0.02843,0.027824 -0.01982,0.012664 -0.0507,0.029308 -0.07108,0.041737 -0.16634,0.10147 -0.35937,0.19121 -0.55441,0.27824 -0.03835,0.016976 -0.07463,0.039177 -0.11372,0.055648 -0.04362,0.018488 -0.08353,0.037772 -0.12794,0.055648 -0.03973,0.015995 -0.07347,0.026213 -0.11373,0.041736 -0.02013,0.00776 -0.05084,0.020177 -0.07107,0.027824 -0.0039,0.00147 -0.01032,-0.00146 -0.01422,0 -0.03645,0.013724 -0.06277,0.028374 -0.09951,0.041736 -0.06123,0.022255 -0.12311,0.048265 -0.1848,0.06956 -0.10283,0.035514 -0.21003,0.064343 -0.31274,0.097384 -0.06163,0.019825 -0.12372,0.036641 -0.1848,0.055648 -0.04686,0.014582 -0.09581,0.04152 -0.14216,0.055648 -0.07448,0.022707 -0.14067,0.034027 -0.21323,0.055648 -0.0343,0.00909 -0.07936,0.018852 -0.11372,0.027824 -0.05528,0.014433 -0.10092,0.027613 -0.15637,0.041736 -0.03446,0.00878 -0.07919,0.019164 -0.11372,0.027824 -0.05555,0.013932 -0.10065,0.028109 -0.15637,0.041736 -0.06024,0.014733 -0.12438,0.027355 -0.1848,0.041736 -0.18128,0.043143 -0.35727,0.085156 -0.54019,0.12521 -0.06097,0.013352 -0.12365,0.028719 -0.1848,0.041737 -0.09631,0.020501 -0.2018,0.035964 -0.29852,0.055647 -0.04821,0.00981 -0.09385,0.032126 -0.14216,0.041737 -0.0046,9.1944e-4 -0.0096,-9.1644e-4 -0.01422,0 -0.18898,0.03752 -0.37817,0.062841 -0.56862,0.097386 -0.06203,0.011252 -0.12262,0.03079 -0.1848,0.041736 -0.12437,0.021891 -0.24467,0.03496 -0.3696,0.055648 -0.0937,0.015517 -0.1903,0.040792 -0.28431,0.055648 -0.18802,0.029715 -0.37947,0.056308 -0.56862,0.083472 -0.06306,0.0091 -0.12163,0.019 -0.1848,0.027824 -0.12634,0.017561 -0.25704,0.02525 -0.38382,0.041737 -0.0634,0.00829 -0.1213,0.019796 -0.1848,0.027824 -0.06827,0.00858 -0.14484,0.019542 -0.21323,0.027824 -0.1134,0.013735 -0.22747,0.028801 -0.34117,0.041737 -0.0048,5.475e-4 -0.0095,-5.466e-4 -0.01422,0 -0.51483,0.058418 -1.0297,0.10961 -1.5495,0.15303 -0.12882,0.01086 -0.25478,0.017802 -0.38382,0.027824 -0.4516,0.034741 -0.91122,0.071925 -1.3647,0.097385 -0.12498,0.00707 -0.25877,0.00748 -0.38382,0.013912 -0.06482,0.0033 -0.13418,0.01078 -0.19902,0.013913 -0.12508,0.00609 -0.25871,0.00841 -0.38382,0.013912 -0.51882,0.022545 -1.0314,0.041809 -1.5495,0.055648 -0.12952,0.00349 -0.25443,0.010887 -0.38382,0.013913 -0.26338,0.00614 -0.5192,0.00946 -0.78186,0.013912 -0.13499,5.542e-4 -0.27707,-1.005e-4 -0.41225,0 -0.0046,3e-6 -0.0096,-1.5e-6 -0.01422,0 -0.06526,4.05e-5 -0.13372,6.97e-5 -0.19902,0 -0.0046,-6e-6 -0.0096,6.7e-6 -0.01422,0 -0.2752,-3.27e-4 -0.54876,0.00245 -0.8245,0 -0.0046,-4.35e-5 -0.0096,4.42e-5 -0.01422,0 -0.13557,-0.00128 -0.27658,-0.012065 -0.41225,-0.013912 -0.14031,-0.00186 -0.2861,0.00249 -0.42647,0 -0.14042,-0.00255 -0.2718,-0.010695 -0.41225,-0.013913 -0.0047,-1.08e-4 -0.0096,1.079e-4 -0.01422,0 -0.0702,-0.00158 -0.12881,0.00175 -0.19902,0 -0.14046,-0.00356 -0.28601,-0.00963 -0.42646,-0.013913 -0.14046,-0.00428 -0.27183,-0.00888 -0.41225,-0.013913 -0.0047,-1.672e-4 -0.0096,1.689e-4 -0.01422,0 -0.13574,-0.00488 -0.27657,-0.0083 -0.41225,-0.013912 -0.20577,-0.00839 -0.41994,-0.01769 -0.62548,-0.027824 -0.0046,-2.332e-4 -0.0096,2.34e-4 -0.01422,0 -0.55584,-0.027518 -1.1104,-0.069606 -1.6632,-0.1113 -0.0046,-3.539e-4 -0.0096,3.54e-4 -0.01422,0 -0.41352,-0.03128 -0.82583,-0.071101 -1.2368,-0.1113 -0.0046,-4.546e-4 -0.0096,4.544e-4 -0.01422,0 C 22.82628,1.458078 22.55419,1.433306 22.27872,1.401769 22.20981,1.393839 22.1485,1.382159 22.0797,1.373946 21.97655,1.361695 21.86987,1.359021 21.76696,1.346121 21.45824,1.307421 21.14929,1.265694 20.84295,1.220911 20.74084,1.205983 20.63203,1.180892 20.53021,1.165263 20.39445,1.144423 20.26739,1.131732 20.13218,1.109615 20.06457,1.098555 20.00063,1.079264 19.93316,1.067878 19.89527,1.061488 19.85727,1.060458 19.81944,1.053966 19.78573,1.048176 19.75361,1.045926 19.71993,1.040054 19.65261,1.028341 19.58809,1.010365 19.52091,0.998318 19.48732,0.992298 19.45495,0.990508 19.4214,0.984405 19.3543,0.972191 19.28932,0.955224 19.22238,0.942669 19.18891,0.936389 19.15631,0.935119 19.12287,0.928756 19.056,0.91603 18.99056,0.900091 18.92385,0.887019 c -0.27,-0.05084 -0.535,-0.10754 -0.799,-0.16551 C 18.05882,0.707016 17.99168,0.69463 17.92583,0.679773 17.85998,0.664915 17.79248,0.653263 17.72681,0.638036 17.69397,0.630426 17.66009,0.617919 17.6273,0.610213 17.54022,0.586662 17.44654,0.565079 17.35721,0.540652 17.31254,0.528438 17.27434,0.511386 17.22927,0.498916 17.13913,0.473975 17.05033,0.455473 16.95917,0.429355 16.91359,0.416295 16.86269,0.40101 16.81701,0.387619 16.77134,0.374227 16.73473,0.359631 16.68907,0.345882 16.64341,0.332133 16.59246,0.318276 16.54691,0.304146 16.5014,0.29002 16.45013,0.276953 16.40479,0.262415 16.33679,0.240608 16.27299,0.215649 16.20577,0.192854 16.16096,0.177658 16.12216,0.166785 16.07783,0.151118 16.05566,0.143288 16.02878,0.131249 16.00676,0.123294 15.96271,0.107383 15.92225,0.097976 15.87882,0.081558 c -0.08685,-0.032837 -0.17218,-0.076277 -0.25588,-0.1113 -0.14647,-0.061284 -0.29317,-0.12596 -0.42647,-0.19477 -0.05332,-0.027525 -0.10566,-0.054623 -0.15637,-0.083473 -0.0036,-0.00206 -0.01063,0.00207 -0.01422,0 -0.02932,-0.016801 -0.04272,-0.038383 -0.07107,-0.055648 -0.0088,-0.00529 -0.01979,-0.00858 -0.02843,-0.013912 -0.0952,-0.058812 -0.18745,-0.11633 -0.2701,-0.18086 -0.0075,-0.00586 -0.0068,-0.00801 -0.01422,-0.013913 -0.01036,-0.00828 -0.0183,-0.019444 -0.02843,-0.027823 -0.0073,-0.00596 -0.0071,-0.00791 -0.01422,-0.013913 -0.06021,-0.050533 -0.11915,-0.098813 -0.17059,-0.15303 -0.0062,-0.00642 -0.0082,-0.00743 -0.01422,-0.013912 -0.01057,-0.011353 -0.01826,-0.030217 -0.02843,-0.041736 -0.0023,-0.00264 -0.01192,0.00264 -0.01422,0 -0.02541,-0.029023 -0.03414,-0.05337 -0.05686,-0.083473 -0.0052,-0.00681 -0.0092,-0.00704 -0.01422,-0.013913 -0.01727,-0.023376 -0.02707,-0.045519 -0.04265,-0.069561 -0.0046,-0.00704 -0.0097,-0.00681 -0.01422,-0.013912 -0.01797,-0.028423 -0.04135,-0.054101 -0.05686,-0.083473 -0.0038,-0.00734 -0.0105,-0.020422 -0.01422,-0.027824 -0.01303,-0.02591 -0.01738,-0.056814 -0.02843,-0.083472 -0.0047,-0.011426 -0.0098,-0.01626 -0.01422,-0.027824 -0.0021,-0.010718 0.0016,-0.031105 0,-0.041737 -0.0016,-0.01063 -0.0131,-0.017279 -0.01422,-0.027824 -0.0015,-0.01406 7.09e-4,-0.027828 0,-0.041737 -3.57e-4,-0.00696 1.65e-4,-0.00699 0,-0.013912 -1.61e-4,-0.00692 -2.9e-5,-0.020946 0,-0.027824 2.6e-5,-0.00688 -2.14e-4,-0.00707 0,-0.013912 4.38e-4,-0.013682 -0.0012,-0.028205 0,-0.041737 5.86e-4,-0.00677 -7.68e-4,-0.00718 0,-0.013912 0.0012,-0.010091 0.01265,-0.017817 0.01422,-0.027824 0.0016,-0.010007 -0.002,-0.031812 0,-0.041736 0.0013,-0.00662 -0.0015,-0.00733 0,-0.013912 0.0015,-0.00658 0.01255,-0.021282 0.01422,-0.027824 0.0017,-0.00655 -0.0018,-0.0074 0,-0.013912 0.0019,-0.00651 -0.002,-0.00744 0,-0.013913 0.008,-0.025903 0.01781,-0.058151 0.02843,-0.083473 0.0027,-0.00632 0.01139,-0.00763 0.01422,-0.013912 0.0042,-0.00943 0.0097,-0.018478 0.01422,-0.027824 0.0046,-0.00935 0.0093,-0.018561 0.01422,-0.027824 0.0049,-0.00926 0.009,-0.018642 0.01422,-0.027824 0.0018,-0.00306 -0.0018,-0.010861 0,-0.013913 0.0072,-0.012229 0.02066,-0.029649 0.02843,-0.041736 0.01169,-0.018096 0.01545,-0.023962 0.02843,-0.041736 0.0043,-0.00592 0.0097,-0.021935 0.01422,-0.027824 0.0044,-0.0059 0.0097,-0.00805 0.01422,-0.013913 0.0046,-0.00585 0.0095,-0.00809 0.01422,-0.013912 0.0095,-0.011662 0.01844,-0.030214 0.02843,-0.041736 0.007,-0.00805 0.02116,-0.00593 0.02843,-0.013913 0.01025,-0.011452 0.01768,-0.016512 0.02843,-0.027824 0.0054,-0.00564 0.0087,-0.022216 0.01422,-0.027824 0.011,-0.011244 0.01695,-0.01672 0.02843,-0.027824 0.0058,-0.00554 0.0084,-0.00841 0.01422,-0.013913 0.01173,-0.011035 0.03046,-0.030838 0.04265,-0.041736 0.0061,-0.00543 0.008,-0.00851 0.01422,-0.013913 0.01862,-0.016245 0.03725,-0.025799 0.05686,-0.041736 0.0066,-0.0053 0.02177,-0.00865 0.02843,-0.013912 0.02657,-0.021114 0.04289,-0.048988 0.07108,-0.069561 0.02119,-0.015383 0.04904,-0.026656 0.07107,-0.041736 0.02199,-0.015128 0.04829,-0.026908 0.07107,-0.041736 0.01523,-0.00985 0.02708,-0.018103 0.04265,-0.027824 0.07993,-0.050503 0.15393,-0.10602 0.24166,-0.15303 0.06792,-0.036396 0.14174,-0.063038 0.21323,-0.097385 0.05362,-0.02576 0.10122,-0.058847 0.15637,-0.083473 0.03677,-0.016418 0.07643,-0.025816 0.11372,-0.041736 0.01865,-0.00796 0.03811,-0.019988 0.05686,-0.027824 0.03752,-0.015672 0.07586,-0.026554 0.11372,-0.041736 0.01893,-0.00759 0.03786,-0.020355 0.05686,-0.027824 0.038,-0.014938 0.07555,-0.027282 0.11372,-0.041736 0.03816,-0.014455 0.07551,-0.027761 0.11373,-0.041737 0.03822,-0.013976 0.07558,-0.028234 0.11372,-0.041736 0.03815,-0.013502 0.07577,-0.028703 0.11372,-0.041736 0.01898,-0.00651 0.03795,-0.00752 0.05686,-0.013913 0.03781,-0.0128 0.07628,-0.029399 0.11372,-0.041737 0.05615,-0.018506 0.11561,-0.038169 0.17059,-0.055648 0.02071,-0.00606 0.03619,-0.00794 0.05686,-0.013912 0.06202,-0.017905 0.12276,-0.038348 0.1848,-0.055648 0.0041,-0.00115 0.01007,0.00115 0.01422,0 0.07862,-0.021877 0.16206,-0.048072 0.24167,-0.069561 -2.8924,0.34128 -4.6627,0.90972 -4.6627,1.9199 v 3.4919 c 0,2.1339 7.8823,3.8676 17.599,3.8676 9.7166,0 17.599,-1.7337 17.599,-3.8676 v -3.4919 c 0,-1.032 -1.8448,-1.6145 -4.8475,-1.9616 z"
       inkscape:connector-curvature="0" />
    <path
       id="path18219"
       style="fill:#d9dcd5;fill-rule:evenodd;stroke:url(#linearGradient2492);stroke-width:0.18604;stroke-linecap:round;stroke-linejoin:round"
       d="m 29.529,-5.1925 c -0.57456,0.00316 -1.148,0.015699 -1.7201,0.027824 -4.283,0.15472 -8.6793,0.50345 -12.581,1.7529 -1.2948,0.4507 -2.948,1.1763 -2.7578,2.2816 0.41129,1.1928 2.3285,1.7705 3.8666,2.2259 4.6331,1.1923 9.6945,1.4551 14.628,1.4329 4.5584,-0.084558 9.2339,-0.39056 13.448,-1.6138 1.3861,-0.45218 3.1399,-1.0943 3.2412,-2.2398 1.77e-4,-0.13373 -0.02595,-0.27564 -0.08529,-0.40345 -0.67407,-1.1573 -2.5911,-1.683 -4.2078,-2.1286 -4.4138,-1.0563 -9.1532,-1.3613 -13.832,-1.3356 z m -0.83872,0.61213 c 4.5257,-0.061152 9.1407,0.16378 13.419,1.0991 1.4645,0.36861 3.1992,0.80933 3.8098,1.7668 0.05375,0.10575 0.08545,0.20934 0.08529,0.31998 -0.09169,0.94781 -1.687,1.4762 -2.9426,1.8503 -3.816,1.012 -8.053,1.2795 -12.182,1.3494 -4.469,0.0184 -9.052,-0.2099 -13.249,-1.1964 -1.393,-0.37681 -3.124,-0.84954 -3.497,-1.8364 -0.17229,-0.91451 1.3149,-1.5192 2.4877,-1.892 3.5341,-1.0338 7.5212,-1.3189 11.401,-1.4469 0.2221,-0.0043 0.44556,-0.010904 0.66813,-0.013913 z"
       inkscape:connector-curvature="0" />
    <path
       id="path7867"
       style="fill:url(#linearGradient2489);fill-rule:evenodd"
       d="m 29.529,-5.1925 c -0.57456,0.00316 -1.148,0.015699 -1.7201,0.027824 -4.283,0.15472 -8.6793,0.50346 -12.581,1.7529 -1.2948,0.4507 -2.948,1.1763 -2.7578,2.2816 0.41129,1.1928 2.3285,1.7705 3.8666,2.2259 4.6331,1.1923 9.6945,1.4551 14.628,1.4329 4.5584,-0.084558 9.2339,-0.39056 13.448,-1.6138 1.3861,-0.45218 3.1399,-1.0943 3.2412,-2.2398 1.78e-4,-0.13373 -0.02595,-0.27564 -0.08529,-0.40345 -0.67407,-1.1573 -2.5911,-1.683 -4.2078,-2.1286 -4.4138,-1.0563 -9.1532,-1.3613 -13.832,-1.3356 z m -0.83872,0.61213 c 4.5257,-0.061152 9.1407,0.16378 13.419,1.0991 1.4645,0.36861 3.1992,0.80933 3.8098,1.7668 0.05375,0.10575 0.08545,0.20934 0.08529,0.31998 -0.09169,0.94781 -1.687,1.4762 -2.9426,1.8503 -3.816,1.012 -8.053,1.2795 -12.182,1.3494 -4.469,0.0184 -9.052,-0.2099 -13.249,-1.1964 -1.393,-0.37681 -3.124,-0.84954 -3.497,-1.8364 -0.17229,-0.91451 1.3149,-1.5192 2.4877,-1.892 3.5341,-1.0338 7.5212,-1.3189 11.401,-1.4469 0.2221,-0.0043 0.44556,-0.010904 0.66813,-0.013913 z"
       inkscape:connector-curvature="0" />
  </g>
</svg>
